<svg version="1.1" xmlns="http://www.w3.org/2000/svg" xmlns:xlink="http://www.w3.org/1999/xlink" width="35" height="35"><defs/><g><path fill="rgb(0,0,0)" stroke="none" paint-order="stroke fill markers" fill-rule="evenodd" d=" M 33.0667724609375 6.037140071392059 C 32.74382019042969 5.659165799617767 32.280677795410156 5.4420859813690186 31.79144287109375 5.4420859813690186 C 31.79144287109375 5.4420859813690186 8.476737976074219 5.4420859813690186 8.476737976074219 5.4420859813690186 C 8.476737976074219 5.4420859813690186 8.14703369140625 3.4372900128364563 8.14703369140625 3.4372900128364563 C 8.012908935546875 2.6072789430618286 7.308525085449219 1.9976312518119812 6.483863830566406 1.9976312518119812 C 6.483863830566406 1.9976312518119812 2.687744140625 1.9976312518119812 2.687744140625 1.9976312518119812 C 1.754364013671875 1.9976312518119812 1.0005416870117188 2.7670788764953613 1.0005416870117188 3.720041036605835 C 1.0005416870117188 4.672638356685638 1.754364013671875 5.4420859813690186 2.687744140625 5.4420859813690186 C 2.687744140625 5.4420859813690186 5.054496765136719 5.4420859813690186 5.054496765136719 5.4420859813690186 C 5.054496765136719 5.4420859813690186 8.193267822265625 24.67207431793213 8.193267822265625 24.67207431793213 C 8.206428527832031 24.749420404434204 8.245109558105469 24.813267409801483 8.269027709960938 24.885505735874176 C 8.2962646484375 24.976350903511047 8.317665100097656 25.062453150749207 8.359664916992188 25.146366357803345 C 8.414024353027344 25.259101927280426 8.486579895019531 25.35505485534668 8.562339782714844 25.454291343688965 C 8.615097045898438 25.521421909332275 8.662017822265625 25.587093114852905 8.722900390625 25.648021399974823 C 8.820289611816406 25.740325927734375 8.933815002441406 25.805632293224335 9.048370361328125 25.869844138622284 C 9.112686157226562 25.90669298171997 9.1678466796875 25.955581545829773 9.236968994140625 25.982214868068695 C 9.433006286621094 26.065033555030823 9.638999938964844 26.112097918987274 9.856552124023438 26.112097918987274 C 9.858154296875 26.112097918987274 28.417037963867188 26.112097918987274 28.417037963867188 26.112097918987274 C 29.349502563476562 26.112097918987274 30.10424041748047 25.341555774211884 30.10424041748047 24.38932329416275 C 30.10424041748047 23.437090814113617 29.349502563476562 22.666913509368896 28.417037963867188 22.666913509368896 C 28.417037963867188 22.666913509368896 11.287521362304688 22.666913509368896 11.287521362304688 22.666913509368896 C 11.287521362304688 22.666913509368896 11.007484436035156 20.944503724575043 11.007484436035156 20.944503724575043 C 11.007484436035156 20.944503724575043 30.10424041748047 20.944503724575043 30.10424041748047 20.944503724575043 C 30.94446563720703 20.944503724575043 31.656288146972656 20.313695311546326 31.77484893798828 19.46763128042221 C 31.77484893798828 19.46763128042221 33.46205139160156 7.409668266773224 33.46205139160156 7.409668266773224 C 33.531402587890625 6.913485825061798 33.38629150390625 6.41219562292099 33.0667724609375 6.037140071392059 Z M 29.847320556640625 8.887270390987396 C 29.847320556640625 8.887270390987396 29.36609649658203 12.332454800605774 29.36609649658203 12.332454800605774 C 29.36609649658203 12.332454800605774 23.355545043945312 12.332454800605774 23.355545043945312 12.332454800605774 C 23.355545043945312 12.332454800605774 23.355545043945312 8.887270390987396 23.355545043945312 8.887270390987396 C 23.355545043945312 8.887270390987396 29.847320556640625 8.887270390987396 29.847320556640625 8.887270390987396 Z M 21.66834259033203 8.887270390987396 C 21.66834259033203 8.887270390987396 21.66834259033203 12.332454800605774 21.66834259033203 12.332454800605774 C 21.66834259033203 12.332454800605774 16.606849670410156 12.332454800605774 16.606849670410156 12.332454800605774 C 16.606849670410156 12.332454800605774 16.606849670410156 8.887270390987396 16.606849670410156 8.887270390987396 C 16.606849670410156 8.887270390987396 21.66834259033203 8.887270390987396 21.66834259033203 8.887270390987396 Z M 21.66834259033203 14.054864585399628 C 21.66834259033203 14.054864585399628 21.66834259033203 17.499319314956665 21.66834259033203 17.499319314956665 C 21.66834259033203 17.499319314956665 16.606849670410156 17.499319314956665 16.606849670410156 17.499319314956665 C 16.606849670410156 17.499319314956665 16.606849670410156 14.054864585399628 16.606849670410156 14.054864585399628 C 16.606849670410156 14.054864585399628 21.66834259033203 14.054864585399628 21.66834259033203 14.054864585399628 Z M 14.919761657714844 8.887270390987396 C 14.919761657714844 8.887270390987396 14.919761657714844 12.332454800605774 14.919761657714844 12.332454800605774 C 14.919761657714844 12.332454800605774 9.858154296875 12.332454800605774 9.858154296875 12.332454800605774 C 9.7684326171875 12.332454800605774 9.687637329101562 12.357993602752686 9.608673095703125 12.383532404899597 C 9.608673095703125 12.383532404899597 9.038528442382812 8.887270390987396 9.038528442382812 8.887270390987396 C 9.038528442382812 8.887270390987396 14.919761657714844 8.887270390987396 14.919761657714844 8.887270390987396 Z M 9.882186889648438 14.054864585399628 C 9.882186889648438 14.054864585399628 14.919761657714844 14.054864585399628 14.919761657714844 14.054864585399628 C 14.919761657714844 14.054864585399628 14.919761657714844 17.499319314956665 14.919761657714844 17.499319314956665 C 14.919761657714844 17.499319314956665 10.443977355957031 17.499319314956665 10.443977355957031 17.499319314956665 C 10.443977355957031 17.499319314956665 9.882186889648438 14.054864585399628 9.882186889648438 14.054864585399628 Z M 23.355545043945312 17.499319314956665 C 23.355545043945312 17.499319314956665 23.355545043945312 14.054864585399628 23.355545043945312 14.054864585399628 C 23.355545043945312 14.054864585399628 29.122337341308594 14.054864585399628 29.122337341308594 14.054864585399628 C 29.122337341308594 14.054864585399628 28.64111328125 17.499319314956665 28.64111328125 17.499319314956665 C 28.64111328125 17.499319314956665 23.355545043945312 17.499319314956665 23.355545043945312 17.499319314956665 Z M 12.388900756835938 27.834507703781128 C 13.786911010742188 27.834507703781128 14.919761657714844 28.991780281066895 14.919761657714844 30.417939960956573 C 14.919761657714844 31.844464480876923 13.786911010742188 33.00173705816269 12.388900756835938 33.00173705816269 C 10.991004943847656 33.00173705816269 9.858154296875 31.844464480876923 9.858154296875 30.417939960956573 C 9.858154296875 28.991780281066895 10.991004943847656 27.834507703781128 12.388900756835938 27.834507703781128 Z M 27.57349395751953 27.834507703781128 C 28.97058868408203 27.834507703781128 30.10424041748047 28.991780281066895 30.10424041748047 30.417939960956573 C 30.10424041748047 31.844464480876923 28.97058868408203 33.00173705816269 27.57349395751953 33.00173705816269 C 26.176284790039062 33.00173705816269 25.042747497558594 31.844464480876923 25.042747497558594 30.417939960956573 C 25.042747497558594 28.991780281066895 26.176284790039062 27.834507703781128 27.57349395751953 27.834507703781128 Z"/></g></svg>