<svg version="1.1" xmlns="http://www.w3.org/2000/svg" xmlns:xlink="http://www.w3.org/1999/xlink" width="34" height="26"><defs/><g><path fill="rgb(0,0,0)" stroke="none" paint-order="stroke fill markers" fill-rule="evenodd" d=" M 1.00152587890625 1.9984670281410217 C 1.00152587890625 1.9984670281410217 32.99806213378906 1.9984670281410217 32.99806213378906 1.9984670281410217 C 32.99806213378906 1.9984670281410217 32.99806213378906 4.690256774425507 32.99806213378906 4.690256774425507 C 32.99806213378906 4.690256774425507 1.00152587890625 4.690256774425507 1.00152587890625 4.690256774425507 C 1.00152587890625 4.690256774425507 1.00152587890625 1.9984670281410217 1.00152587890625 1.9984670281410217 Z M 1.00152587890625 12.070240914821625 C 1.00152587890625 12.070240914821625 32.99806213378906 12.070240914821625 32.99806213378906 12.070240914821625 C 32.99806213378906 12.070240914821625 32.99806213378906 14.76276034116745 32.99806213378906 14.76276034116745 C 32.99806213378906 14.76276034116745 1.00152587890625 14.76276034116745 1.00152587890625 14.76276034116745 C 1.00152587890625 14.76276034116745 1.00152587890625 12.070240914821625 1.00152587890625 12.070240914821625 Z M 1.00152587890625 22.306922495365143 C 1.00152587890625 22.306922495365143 32.99806213378906 22.306922495365143 32.99806213378906 22.306922495365143 C 32.99806213378906 22.306922495365143 32.99806213378906 24.999441921710968 32.99806213378906 24.999441921710968 C 32.99806213378906 24.999441921710968 1.00152587890625 24.999441921710968 1.00152587890625 24.999441921710968 C 1.00152587890625 24.999441921710968 1.00152587890625 22.306922495365143 1.00152587890625 22.306922495365143 Z"/></g></svg>